<svg width="21" height="20" viewBox="0 0 21 20" fill="none" xmlns="http://www.w3.org/2000/svg">
<path d="M5.15666 8.33333C4.23999 8.33333 3.48999 9.08333 3.48999 9.99999C3.48999 10.9167 4.23999 11.6667 5.15666 11.6667C6.07332 11.6667 6.82332 10.9167 6.82332 9.99999C6.82332 9.08333 6.07332 8.33333 5.15666 8.33333ZM15.1567 8.33333C14.24 8.33333 13.49 9.08333 13.49 9.99999C13.49 10.9167 14.24 11.6667 15.1567 11.6667C16.0733 11.6667 16.8233 10.9167 16.8233 9.99999C16.8233 9.08333 16.0733 8.33333 15.1567 8.33333ZM10.1567 8.33333C9.23999 8.33333 8.48999 9.08333 8.48999 9.99999C8.48999 10.9167 9.23999 11.6667 10.1567 11.6667C11.0733 11.6667 11.8233 10.9167 11.8233 9.99999C11.8233 9.08333 11.0733 8.33333 10.1567 8.33333Z" fill="#0F1419"/>
</svg>
