<svg width="27" height="21" viewBox="0 0 27 21" fill="none" xmlns="http://www.w3.org/2000/svg">
<path fill-rule="evenodd" clip-rule="evenodd" d="M21.3794 15.2974L26.31 19.0779C26.7047 19.3805 26.7047 19.8701 26.3073 20.1728C26.112 20.3246 25.8493 20.4 25.5933 20.4C25.3374 20.4 25.0774 20.3236 24.8793 20.1728L19.9487 16.3923C17.8364 17.7619 15.1084 18.5924 12.1244 18.5924C5.42905 18.5924 0 14.4298 0 9.2962C0 4.16263 5.42905 0 12.1244 0C18.8198 0 24.2489 4.16263 24.2489 9.2962C24.2489 11.5831 23.1644 13.6757 21.3794 15.2974ZM12.1244 1.54937C6.55393 1.54937 2.02074 5.02511 2.02074 9.2962C2.02074 13.5673 6.55393 17.043 12.1244 17.043C17.6949 17.043 22.2281 13.5673 22.2281 9.2962C22.2281 5.02511 17.6949 1.54937 12.1244 1.54937Z" fill="#6E7F8D"/>
</svg>
